<svg xmlns="http://www.w3.org/2000/svg" width="768" height="432" viewBox="0 0 768 432">
  <rect width="768" height="432" fill="#f7f5f0"/>

  <rect x="256" width="256" height="144" fill="#dedbd5"/>
  <rect y="144" width="256" height="144" fill="#dedbd5"/>
  <rect x="256" y="144" width="256" height="144" fill="#08080a"/>
  <rect x="512" y="144" width="256" height="144" fill="#dedbd5"/>
  <rect x="256" y="288" width="256" height="144" fill="#dedbd5"/>

  <g fill="#25252a" font-family="ui-monospace, SFMono-Regular, Menlo, Consolas, monospace" font-size="26" font-weight="700" text-anchor="middle">
    <text x="128" y="82">TL</text>
    <text x="384" y="82">T</text>
    <text x="640" y="82">TR</text>
    <text x="128" y="226">L</text>
    <text x="640" y="226">R</text>
    <text x="128" y="370">BL</text>
    <text x="384" y="370">B</text>
    <text x="640" y="370">BR</text>
  </g>

  <svg x="286" y="190" width="196" height="51" viewBox="0 0 346 90" aria-label="ALTO">
    <path fill="#f7f5f0" d="m.1 87 44-84 44 84h-8.7L44.1 20.2 8.7 86.9zM110.8 3h7.9v76h52v8h-59.9zM174.3 3h72.2V11h-31.8v76h-7.9V11h-32.5zM296.8 3.3c10.2-1.7 20.7.3 29.5 5.8L322 16a34.1 34.1 0 1 0 11 10.9l6.7-4.3a42.3 42.3 0 1 1-43-19.3"/>
  </svg>

  <g fill="none" stroke="#25252a" stroke-width="4">
    <path d="M256 0v432M512 0v432M0 144h768M0 288h768"/>
    <rect x="4" y="4" width="760" height="424"/>
  </g>

  <circle cx="28" cy="28" r="12" fill="#00b7ff" stroke="#25252a" stroke-width="4"/>
</svg>
